<svg width="64" height="64" viewBox="0 0 64 64" fill="none" xmlns="http://www.w3.org/2000/svg">
<path d="M31.875 62C29.7083 62 27.6667 61.25 25.75 59.75C23.8542 58.25 22.1771 56.1458 20.7188 53.4375C19.2812 50.7292 18.1458 47.5521 17.3125 43.9062C16.5 40.2396 16.0938 36.25 16.0938 31.9375C16.0938 27.625 16.5 23.6354 17.3125 19.9688C18.1458 16.2812 19.2812 13.0833 20.7188 10.375C22.1562 7.64583 23.8229 5.53125 25.7188 4.03125C27.6354 2.53125 29.6875 1.78125 31.875 1.78125C34.0625 1.78125 36.1042 2.53125 38 4.03125C39.9167 5.53125 41.5938 7.64583 43.0312 10.375C44.4896 13.0833 45.625 16.2812 46.4375 19.9688C47.25 23.6354 47.6562 27.625 47.6562 31.9375C47.6562 36.25 47.2396 40.2396 46.4062 43.9062C45.5938 47.5521 44.4583 50.7292 43 53.4375C41.5625 56.1458 39.8854 58.25 37.9688 59.75C36.0729 61.25 34.0417 62 31.875 62ZM31.875 5.5625C30.3542 5.5625 28.8958 6.27083 27.5 7.6875C26.1042 9.08333 24.8646 11 23.7812 13.4375C22.6979 15.875 21.8438 18.6875 21.2188 21.875C20.5938 25.0417 20.2812 28.3958 20.2812 31.9375C20.2812 35.4375 20.5938 38.7604 21.2188 41.9062C21.8438 45.0521 22.6979 47.8542 23.7812 50.3125C24.8646 52.75 26.1042 54.6667 27.5 56.0625C28.8958 57.4792 30.3542 58.1875 31.875 58.1875C33.3958 58.1875 34.8542 57.4792 36.25 56.0625C37.6458 54.6667 38.8854 52.75 39.9688 50.3125C41.0521 47.8542 41.9062 45.0521 42.5312 41.9062C43.1562 38.7604 43.4688 35.4375 43.4688 31.9375C43.4688 28.3958 43.1562 25.0417 42.5312 21.875C41.9062 18.6875 41.0521 15.875 39.9688 13.4375C38.8854 11 37.6458 9.08333 36.25 7.6875C34.8542 6.27083 33.3958 5.5625 31.875 5.5625ZM29.8438 2.21875H33.9375V61.4062H29.8438V2.21875ZM31.875 43.625C35.0833 43.625 38.125 43.8958 41 44.4375C43.875 44.9583 46.4583 45.7188 48.75 46.7188C51.0625 47.6979 52.9479 48.8542 54.4062 50.1875L51.25 52.7812C49.875 51.6979 48.2188 50.7812 46.2812 50.0312C44.3646 49.2604 42.1875 48.6875 39.75 48.3125C37.3333 47.9167 34.7083 47.7188 31.875 47.7188C29.0417 47.7188 26.4062 47.9167 23.9688 48.3125C21.5521 48.6875 19.375 49.2604 17.4375 50.0312C15.5208 50.7812 13.875 51.6979 12.5 52.7812L9.34375 50.1875C10.8021 48.8542 12.6771 47.6979 14.9688 46.7188C17.2812 45.7188 19.875 44.9583 22.75 44.4375C25.625 43.8958 28.6667 43.625 31.875 43.625ZM60.7188 29.8125V33.9062H3.03125V29.8125H60.7188ZM31.875 20.2812C28.6667 20.2812 25.625 20.0208 22.75 19.5C19.875 18.9583 17.2812 18.1979 14.9688 17.2188C12.6771 16.2188 10.8021 15.0521 9.34375 13.7188L12.5 11.125C13.875 12.2083 15.5208 13.1354 17.4375 13.9062C19.375 14.6562 21.5521 15.2292 23.9688 15.625C26.4062 16 29.0417 16.1875 31.875 16.1875C34.7083 16.1875 37.3333 16 39.75 15.625C42.1875 15.2292 44.3646 14.6562 46.2812 13.9062C48.2188 13.1354 49.875 12.2083 51.25 11.125L54.4062 13.7188C52.9479 15.0521 51.0625 16.2188 48.75 17.2188C46.4583 18.1979 43.875 18.9583 41 19.5C38.125 20.0208 35.0833 20.2812 31.875 20.2812ZM31.875 63.75C27.5208 63.75 23.4167 62.9167 19.5625 61.25C15.7292 59.5833 12.3438 57.2812 9.40625 54.3438C6.46875 51.4062 4.16667 48.0208 2.5 44.1875C0.833333 40.3333 0 36.2292 0 31.875C0 27.5208 0.833333 23.4271 2.5 19.5938C4.16667 15.7396 6.45833 12.3438 9.375 9.40625C12.3125 6.46875 15.6979 4.16667 19.5312 2.5C23.3854 0.833333 27.4896 0 31.8438 0C36.1979 0 40.3021 0.833333 44.1562 2.5C48.0104 4.16667 51.4062 6.46875 54.3438 9.40625C57.2812 12.3438 59.5833 15.7396 61.25 19.5938C62.9167 23.4271 63.75 27.5208 63.75 31.875C63.75 36.2292 62.9167 40.3333 61.25 44.1875C59.5833 48.0208 57.2812 51.4062 54.3438 54.3438C51.4062 57.2812 48.0104 59.5833 44.1562 61.25C40.3229 62.9167 36.2292 63.75 31.875 63.75ZM31.875 59.5C35.6458 59.5 39.1979 58.7708 42.5312 57.3125C45.8646 55.875 48.8021 53.8854 51.3438 51.3438C53.8854 48.8021 55.875 45.8646 57.3125 42.5312C58.7708 39.1979 59.5 35.6458 59.5 31.875C59.5 28.1042 58.7708 24.5521 57.3125 21.2188C55.875 17.8854 53.875 14.9479 51.3125 12.4062C48.7708 9.86458 45.8333 7.875 42.5 6.4375C39.1667 4.97917 35.6146 4.25 31.8438 4.25C28.0729 4.25 24.5208 4.97917 21.1875 6.4375C17.8542 7.875 14.9167 9.86458 12.375 12.4062C9.85417 14.9479 7.86458 17.8854 6.40625 21.2188C4.96875 24.5521 4.25 28.1042 4.25 31.875C4.25 35.6458 4.96875 39.1979 6.40625 42.5312C7.86458 45.8646 9.86458 48.8021 12.4062 51.3438C14.9479 53.8854 17.8854 55.875 21.2188 57.3125C24.5521 58.7708 28.1042 59.5 31.875 59.5Z" fill="#E8F4F8"/>
</svg>
