<svg width="103" height="21" viewBox="0 0 103 21" fill="none" xmlns="http://www.w3.org/2000/svg">
<path d="M82.748 0.964994C82.334 0.550994 81.812 0.343994 81.182 0.343994C80.552 0.343994 80.021 0.550994 79.589 0.964994C79.175 1.36099 78.968 1.86499 78.968 2.47699C78.968 3.08899 79.175 3.60199 79.589 4.016C80.021 4.43 80.552 4.637 81.182 4.637C81.812 4.637 82.334 4.43 82.748 4.016C83.162 3.60199 83.369 3.08899 83.369 2.47699C83.369 1.86499 83.162 1.36099 82.748 0.964994Z" fill="#0A0D12"/>
<path d="M52.1883 16.112C51.5043 15.536 51.1263 14.78 51.0543 13.844L47.0853 13.79C47.1033 14.996 47.4453 16.085 48.1113 17.057C48.7773 18.029 49.6953 18.794 50.8653 19.352C52.0533 19.892 53.4033 20.162 54.9153 20.162C56.3193 20.162 57.5793 19.901 58.6953 19.379C59.8293 18.857 60.7113 18.146 61.3413 17.246C61.9713 16.328 62.2863 15.293 62.2863 14.141C62.2863 12.953 62.0163 12.008 61.4763 11.306C60.9543 10.586 60.2613 10.055 59.3973 9.71299C58.5333 9.35299 57.4713 9.05599 56.2113 8.82199C54.9693 8.588 54.0513 8.38999 53.4573 8.22799C52.8633 8.048 52.4043 7.823 52.0803 7.55299C51.7563 7.26499 51.5943 6.86899 51.5943 6.365C51.5943 5.66299 51.8643 5.12299 52.4043 4.745C52.9443 4.36699 53.6643 4.17799 54.5643 4.17799C55.5363 4.17799 56.3193 4.42999 56.9133 4.93399C57.5073 5.41999 57.8493 6.06799 57.9393 6.87799H61.9083C61.8903 5.74399 61.5573 4.72699 60.9093 3.82699C60.2793 2.92699 59.4063 2.22499 58.2903 1.72099C57.1923 1.19899 55.9503 0.937995 54.5643 0.937995C53.2143 0.937995 51.9993 1.18999 50.9193 1.69399C49.8573 2.17999 49.0203 2.85499 48.4083 3.71899C47.8143 4.58299 47.5173 5.564 47.5173 6.66199C47.5173 7.86799 47.7783 8.84 48.3003 9.578C48.8403 10.298 49.5333 10.847 50.3793 11.225C51.2253 11.585 52.2693 11.882 53.5113 12.116C54.7713 12.368 55.6983 12.584 56.2923 12.764C56.9043 12.926 57.3723 13.16 57.6963 13.466C58.0383 13.754 58.2093 14.15 58.2093 14.654C58.2093 15.374 57.9033 15.941 57.2913 16.355C56.6973 16.751 55.9233 16.949 54.9693 16.949C53.8173 16.949 52.8903 16.67 52.1883 16.112Z" fill="#0A0D12"/>
<path fill-rule="evenodd" clip-rule="evenodd" d="M6.912 1.09999L0 20H4.185L5.643 15.869H12.825L14.283 20H18.63L11.772 1.09999H6.912ZM6.723 12.602L9.207 5.41999L11.718 12.602H6.723Z" fill="#0A0D12"/>
<path d="M71.7903 5.95999C73.4283 5.95999 74.7693 6.46399 75.8133 7.47199C76.8753 8.47999 77.4063 10.145 77.4063 12.467V20H73.5993V12.629C73.5993 11.477 73.3653 10.604 72.8973 10.01C72.4293 9.39799 71.7273 9.092 70.7913 9.092C69.8193 9.092 69.0543 9.42499 68.4963 10.091C67.9563 10.757 67.6863 11.684 67.6863 12.872V20H63.8793V1.09999H67.6863V7.82299C68.7123 6.58099 70.0803 5.95999 71.7903 5.95999Z" fill="#0A0D12"/>
<path d="M89.883 5.47399C89.883 5.078 89.973 4.78999 90.153 4.60999C90.333 4.42999 90.621 4.33999 91.017 4.33999H93.366V1.09999H90.261C88.875 1.09999 87.831 1.43299 87.129 2.09899C86.427 2.74699 86.076 3.68299 86.076 4.90699V6.122H83.781V9.335H86.076V20H89.883V9.335H95.8983V20H99.7053V9.335H102.702V6.122H99.7053V1.1H95.8983V6.122H89.883V5.47399Z" fill="#0A0D12"/>
<path d="M83.072 6.122H79.265V20H83.072V6.122Z" fill="#0A0D12"/>
<path d="M23.3345 1.09999H19.5275V20H23.3345V1.09999Z" fill="#0A0D12"/>
<path d="M26.3385 6.122H24.0435V9.335H26.3385V20H30.1455V9.335H33.1425V6.122H30.1455V1.1H26.3385V6.122Z" fill="#0A0D12"/>
<path d="M38.0768 18.272H41.5328V14.06H45.7433V10.604H41.5328V6.39199L41.5313 6.39197H38.0753V10.604H33.8633V14.06H38.0753V18.272L38.0768 18.272Z" fill="#0A0D12"/>
</svg>
